<?xml version="1.0" ?><svg id="outline" viewBox="0 0 340 340" xmlns="http://www.w3.org/2000/svg"><title/><path d="M213.275,97.048a18.944,18.944,0,0,0,15.159,7.672h.119a80.808,80.808,0,0,0,17.59-1.812c.652,1.841,1.252,3.779,1.778,5.822a4,4,0,1,0,7.748-1.994c-.553-2.146-1.182-4.2-1.867-6.161a51.248,51.248,0,0,1,10.188-1.958c12.67-1.025,20.36,3.747,23.493,14.579a73.5,73.5,0,0,1,2.65,21.718l-31,6.754a162.025,162.025,0,0,0-.656-18.386,4,4,0,1,0-7.963.769,155.1,155.1,0,0,1,.6,18.2,57.951,57.951,0,0,1-10.489,27.361,4,4,0,0,0,.185,4.92c6.356,7.538,16.391,20.442,21.807,27.462a18.749,18.749,0,0,1,3.551,15.253c-.465,2.251-1.064,4.649-1.783,7.128a4.806,4.806,0,0,1-9.406-.965l-.358-4.528a19.373,19.373,0,0,0-6.693-13.2c-.421-.365-.858-.715-1.289-1.071a13.591,13.591,0,0,0,2.564-6.059,13.984,13.984,0,0,0-.7-7.014,17.8,17.8,0,0,0-4.161-6.632,14.16,14.16,0,0,0-12.095-3.859,4,4,0,1,0,1.211,7.909,6.11,6.11,0,0,1,5.244,1.625,9.882,9.882,0,0,1,2.281,3.685,6,6,0,0,1,.322,2.993,5.567,5.567,0,0,1-1.069,2.571c-10.491-7.1-22.36-12.039-31.278-15.123a3.771,3.771,0,0,1-2.29-2.207,3.473,3.473,0,0,1,.178-2.95c7.648-13.992,2.763-31,2.551-31.715a4,4,0,1,0-7.673,2.266c.043.143,4.174,14.5-1.9,25.612a11.491,11.491,0,0,0-.62,9.671,11.759,11.759,0,0,0,7.137,6.884c10.529,3.641,25.381,9.973,36.346,19.463a11.425,11.425,0,0,1,3.953,7.777l.357,4.528a12.8,12.8,0,0,0,10.569,11.609,12.974,12.974,0,0,0,2.218.192,12.787,12.787,0,0,0,12.28-9.241c.775-2.679,1.426-5.281,1.933-7.735a26.626,26.626,0,0,0,.358-8.571c4.017-.743,7.973-1.474,11.815-2.182a143.582,143.582,0,0,0-4.01,29.221c-.1,2.438-1.352,4.6-3.044,5.258a4.238,4.238,0,0,1-.408.135,4.113,4.113,0,0,1-4.24-1.456,10.125,10.125,0,0,1-1.188-1.737,4,4,0,0,0-7.015,3.845,18.061,18.061,0,0,0,2.139,3.11,12.265,12.265,0,0,0,9.292,4.376,11.829,11.829,0,0,0,3.134-.424,12.462,12.462,0,0,0,1.185-.393c4.709-1.83,7.9-6.691,8.138-12.385a129.234,129.234,0,0,1,4.748-31.158c20.318-3.736,35.6-6.516,35.808-6.554a4,4,0,0,0-1.432-7.871c-.277.051-27.13,4.935-57.079,10.478a26.95,26.95,0,0,0-3.253-5.449c-5.989-7.764-14.051-18.1-20.073-25.392a65.623,65.623,0,0,0,8.968-21.585l73-15.907a4,4,0,1,0-1.7-7.816L312.7,130c2.316-11.305,4.053-22.905,5.158-31.194a32.283,32.283,0,0,0-5.129-22.17C304.048,63.6,294.8,51.039,290.051,44.713a11.445,11.445,0,0,1-2.287-6.871V27.161a18.742,18.742,0,0,0-8.586-15.826,34.912,34.912,0,0,0-4.149-2.286A18.822,18.822,0,0,0,252.2,14.883l-6.408,8.494a7.488,7.488,0,0,1-4.164,2.757,15.479,15.479,0,0,0-9.008,6.249L224.2,43.72l-2.116-9.67A9.034,9.034,0,0,1,235.1,24.114a4,4,0,1,0,3.708-7.088A17.033,17.033,0,0,0,214.268,35.76L217.7,51.451,206.609,61.53c-1.339.991-6.72,5.349-6.713,11.382.005,4.356,4.01,10.57,5.381,12.569Zm-1.862-29.12.383-.3,10.9-9.906a45.4,45.4,0,0,0,5.926-6.542l10.465-14.087c.033-.045.066-.091.1-.137a7.491,7.491,0,0,1,4.339-3.048,14.868,14.868,0,0,0,8.328-5.278l6.735-8.927a10.783,10.783,0,0,1,13.06-3.4,26.85,26.85,0,0,1,3.194,1.759,10.771,10.771,0,0,1,4.922,9.1V37.842a19.564,19.564,0,0,0,3.884,11.666c4.381,5.841,12.647,17.054,20.7,28.995a11.985,11.985,0,0,0-9.52,10.4l-.171,1.509a11.939,11.939,0,0,0,4.406,10.7,4,4,0,1,0,5.01-6.237,3.975,3.975,0,0,1-1.466-3.564l.171-1.509a3.989,3.989,0,0,1,3.968-3.545h1.918a24.262,24.262,0,0,1,1.261,11.489c-1.2,9.013-3.157,22-5.8,34.118l-6,1.306a80.1,80.1,0,0,0-2.966-22.2c-4.232-14.636-15.228-21.663-31.821-20.331A60.072,60.072,0,0,0,247.3,94.331a67.751,67.751,0,0,1-18.852,2.389,10.9,10.9,0,0,1-8.73-4.421l-2.739-3.713a17.849,17.849,0,0,0,5.788-13.151,4,4,0,1,0-8,0,9.83,9.83,0,0,1-2.363,6.377l-.3-.51-.168-.262c-2.559-3.7-4.011-7.164-4.036-8.138C207.894,71.071,210.31,68.723,211.413,67.928Z"/><path d="M9.908,173.667l56.586,1.3c7.476,11.457,19.548,25.645,24.255,30.688a7.66,7.66,0,0,1,1.644,7.929A106.093,106.093,0,0,1,85.111,228.7a17.04,17.04,0,0,0-2.224,9.207c-8.785,1.729-17.7,3.1-26.582,4.044l-26.5,2.812-.033,0-20.2,2.143a4,4,0,0,0,.417,7.978,3.844,3.844,0,0,0,.427-.023L26,253.214c-.653,9.8-1.654,26.572-1.9,40.6A36.97,36.97,0,0,0,29.1,313.22a45.462,45.462,0,0,0,18.251,17.636,16.232,16.232,0,0,0,7.4,1.8,15.2,15.2,0,0,0,9.415-3.2,14.975,14.975,0,0,0,4.452-5.653,15.579,15.579,0,0,0-4.188-17.978c-6.745-5.871-10.256-12.9-10.434-20.9-.244-10.9,1.026-25.491,2.011-34.891l1.138-.121c9.319-.988,18.681-2.438,27.894-4.27.216.4.444.789.692,1.174,6.73,10.447,3.473,22.093.934,28.106a9.769,9.769,0,0,0,3.794,12.006,12.424,12.424,0,0,0,6.9,2.083,12.553,12.553,0,0,0,6.72-1.951,38.321,38.321,0,0,0,10-9.265,27.139,27.139,0,0,0,5.447-16.343V246.387a16.7,16.7,0,0,1,2.954-9.5l.166-.242,6.666-1.666c1.568-.392,3.15-.753,4.729-1.12l-.9,1.641a29,29,0,0,0-3.6,14.178c.093,7.77-2.37,22.209-7.949,28.523a4.555,4.555,0,0,1-3.255,1.567,4,4,0,0,0,.154,8l.16,0a12.488,12.488,0,0,0,8.936-4.265c7.446-8.426,10.057-25.275,9.953-33.915a20.984,20.984,0,0,1,2.621-10.252l4.2-7.7c4.72-.928,9.459-1.75,14.189-2.448l68.3-10.086a4,4,0,1,0-1.169-7.914l-68.295,10.086c-5.57.822-11.15,1.819-16.7,2.95-.022.007-.046.008-.068.015q-5.607,1.144-11.149,2.491l6.174-8.974a32.094,32.094,0,0,0,5.677-18.268v-23.95l53.731-11.707a4,4,0,1,0-1.7-7.816l-52.028,11.336v-4.972a4,4,0,0,0-8,0v34.359a43.76,43.76,0,0,0-4.106-2.432,10.87,10.87,0,0,0-14.506,4.32,24.135,24.135,0,0,0-2.04,4.759,10.99,10.99,0,0,0,4.405,12.412,4,4,0,1,0,4.465-6.637,3.037,3.037,0,0,1-1.223-3.427,16.163,16.163,0,0,1,1.362-3.179,2.932,2.932,0,0,1,3.868-1.139,41.578,41.578,0,0,1,6.875,4.572,24.145,24.145,0,0,1-3.368,7.235l-13.169,19.14a24.669,24.669,0,0,0-4.363,14.04v15.061a19.09,19.09,0,0,1-3.817,11.5A30.347,30.347,0,0,1,99.8,280.3a4.5,4.5,0,0,1-4.9-.029,1.83,1.83,0,0,1-.863-2.237c3.154-7.466,7.143-22.012-1.577-35.551a9.426,9.426,0,0,1-.405-9.807,112.553,112.553,0,0,0,7.835-16.305A15.617,15.617,0,0,0,96.6,200.192c-.463-.5-.975-1.049-1.521-1.644l3.2-4.168a12.4,12.4,0,0,0,.718-13.97l-1.337-2.172a12.291,12.291,0,0,0-12.449-5.714l-9.8,1.566a63.506,63.506,0,0,1-6.341-11.644,4,4,0,0,0-7.464,2.878c.2.507.41,1.021.633,1.539l-14.065-.322A152.933,152.933,0,0,1,53.3,147.346,48.811,48.811,0,0,1,64.11,130.034c1.087-1.132,2.324-2.411,3.659-3.78a25,25,0,0,0,10.5,2.335q.855,0,1.746-.061a16.924,16.924,0,0,0,14.946-11.341,4,4,0,0,0-7.572-2.582,9.058,9.058,0,0,1-7.932,5.942,16.63,16.63,0,0,1-5.5-.541c2.177-2.164,4.449-4.384,6.713-6.534a32.708,32.708,0,0,1,23.227-9.046c9.024.174,20.646.3,32.648.181l3.269,7.1a11.485,11.485,0,0,0,11.731,6.622l4.84-.544a11.482,11.482,0,0,0,9.735-8.135l1.963-6.57a103.4,103.4,0,0,0,16.761-4.116c2.884-.96,6.155-1.7,9.619-2.493l1.753-.4a4,4,0,1,0-1.794-7.8l-1.734.4c-3.5.8-7.117,1.619-10.373,2.7a87.379,87.379,0,0,1-17.986,4.149c-6.656.728-15.389.853-15.785.863q-4.554.12-9.5.185h-.01c-12.8.169-25.372.037-34.978-.149a40.554,40.554,0,0,0-28.892,11.244c-6.275,5.96-12.609,12.439-16.818,16.824A56.766,56.766,0,0,0,45.77,144.632a163.745,163.745,0,0,0-5.728,21.723l-29.951-.686a4,4,0,0,0-.183,8ZM59.5,312.171a7.479,7.479,0,0,1,1.835,8.334,6.947,6.947,0,0,1-2.1,2.655,7.665,7.665,0,0,1-8.219.577A36.985,36.985,0,0,1,36,309.167,28.971,28.971,0,0,1,32.1,293.951c.15-8.558.587-18.17,1.051-26.561a9.04,9.04,0,0,1,2.456,3.036,6.6,6.6,0,0,1,.252,5.057,6.166,6.166,0,0,1-.268.635,4,4,0,1,0,7.19,3.509,14.888,14.888,0,0,0,.6-1.413,14.643,14.643,0,0,0-.549-11.225,19.04,19.04,0,0,0-9.142-8.664c.14-2.22.272-4.23.39-5.968l13.806-1.465C46.905,260.506,45.763,274.42,46,285.1a34.68,34.68,0,0,0,7.443,20.7,8.567,8.567,0,0,1-3.008.115,6.6,6.6,0,0,1-4.328-2.625,5.61,5.61,0,0,1-1.095-4.039,4,4,0,1,0-7.956-.835,13.647,13.647,0,0,0,2.573,9.569,14.65,14.65,0,0,0,9.6,5.839,15.95,15.95,0,0,0,2.4.181A18.818,18.818,0,0,0,59.5,312.171ZM86.469,180.424a4.322,4.322,0,0,1,4.374,2.007h0L92.18,184.6a4.354,4.354,0,0,1-.253,4.907l-2.27,2.961q-.418-.485-.846-.982c-.214-.25-.429-.5-.646-.756-.486-.57-.979-1.156-1.475-1.749q-.352-.422-.707-.851-.713-.859-1.432-1.747-.469-.577-.941-1.168-.612-.765-1.223-1.543-.671-.855-1.337-1.724c-.15-.195-.3-.393-.448-.589Zm71.884-76.364h.006c.362-.015.728-.034,1.095-.054l-1,3.357a3.494,3.494,0,0,1-2.963,2.476l-4.84.544a3.485,3.485,0,0,1-3.571-2.016l-1.793-3.9C146.383,104.447,158.3,104.062,158.353,104.06Z"/><path d="M115.559,181.779c.093,0,.185,0,.278,0a9.025,9.025,0,0,0,9.011-8.668,40.008,40.008,0,0,0-.349-6.512,9.092,9.092,0,0,0-3.833-6.242,32.875,32.875,0,0,0-4.421-2.6h0a9.017,9.017,0,0,0-8.085.082,8.912,8.912,0,0,0-4.774,6.406,38.178,38.178,0,0,0-.54,8.307,9.09,9.09,0,0,0,6.19,8.2A23.325,23.325,0,0,0,115.559,181.779Zm-4.3-16.112a.955.955,0,0,1,.529-.7,1.105,1.105,0,0,1,.5-.123,1.073,1.073,0,0,1,.47.111,24.911,24.911,0,0,1,3.34,1.97,1.084,1.084,0,0,1,.471.73,32.009,32.009,0,0,1,.284,5.173,1.05,1.05,0,0,1-1.05.951,15.7,15.7,0,0,1-4.262-.627,1.047,1.047,0,0,1-.7-.953A30.052,30.052,0,0,1,111.259,165.667Z"/><path d="M129.873,130.252l-2.081-5.614a11.033,11.033,0,0,0-17.121-4.873l-4.362,3.394a10.437,10.437,0,0,0-2.53,13.6l2.594,4.311a10.417,10.417,0,0,0,12.643,4.37l4.79-1.824A10.457,10.457,0,0,0,129.873,130.252Zm-8.913,5.892-4.789,1.823a2.424,2.424,0,0,1-2.943-1.018l-2.594-4.31a2.43,2.43,0,0,1,.589-3.167l4.361-3.393a3,3,0,0,1,1.852-.642,3.082,3.082,0,0,1,.841.118,3.006,3.006,0,0,1,2.014,1.864l2.081,5.613A2.435,2.435,0,0,1,120.96,136.144Z"/><path d="M162.506,130.569a9.774,9.774,0,0,0-13.951-2.594l-2.815,2.045a9.8,9.8,0,0,0-4.031,7.909v2.627a9.775,9.775,0,0,0,9.782,9.775c.2,0,.411-.007.616-.02l5.612-.358a9.775,9.775,0,0,0,7.581-15.07ZM158.682,141a1.718,1.718,0,0,1-1.473.974l-5.612.359a1.782,1.782,0,0,1-1.327-.477,1.76,1.76,0,0,1-.561-1.295v-2.627a1.782,1.782,0,0,1,.732-1.436l2.817-2.046h0a1.74,1.74,0,0,1,1.038-.339,1.832,1.832,0,0,1,.329.029,1.766,1.766,0,0,1,1.165.781l2.8,4.314A1.718,1.718,0,0,1,158.682,141Z"/><path d="M189.807,148.04a16.193,16.193,0,0,0,10.378-3.77l.22-.184a10.2,10.2,0,0,0,.256-15.418l-2.169-1.942a10.815,10.815,0,0,0-17.653,5.221l-.875,3.219a10.2,10.2,0,0,0,9.843,12.874Zm-2.123-10.777.874-3.218a2.817,2.817,0,0,1,4.6-1.36l2.168,1.943a2.2,2.2,0,0,1-.052,3.322l-.22.184a8.18,8.18,0,0,1-5.244,1.906,2.2,2.2,0,0,1-2.123-2.777Z"/><path d="M238.626,140.779a10.826,10.826,0,0,0,3.752-16.3,18.712,18.712,0,0,0-5.185-4.625,10.684,10.684,0,0,0-9.1-.892,10.842,10.842,0,0,0-6.585,6.533l-.349.957a10.773,10.773,0,0,0,2.338,11.177l1.382,1.451a10.779,10.779,0,0,0,12.693,2.219ZM236.56,131.7a2.854,2.854,0,0,1-1.511,1.926l-1.051.526a2.823,2.823,0,0,1-3.323-.581l-1.382-1.452a2.819,2.819,0,0,1-.613-2.924l.349-.957h0a2.875,2.875,0,0,1,2.69-1.893,2.622,2.622,0,0,1,1.364.381,10.759,10.759,0,0,1,2.972,2.663A2.732,2.732,0,0,1,236.56,131.7Z"/><path d="M256.773,63.246a10.24,10.24,0,0,0,12.884,7.837l1.328-.386a10.215,10.215,0,0,0,6.591-13.775A30.525,30.525,0,0,0,274.286,51a10.233,10.233,0,0,0-18.37,7.928Zm8-8.2h0a2.195,2.195,0,0,1,1.165-.333,2.29,2.29,0,0,1,1.856.955,22.647,22.647,0,0,1,2.42,4.377,2.145,2.145,0,0,1-.044,1.772,2.235,2.235,0,0,1-1.41,1.2l-1.328.385a2.232,2.232,0,0,1-2.809-1.708l-.856-4.32A2.24,2.24,0,0,1,264.77,55.046Z"/><path d="M260.014,38.81l10.117,2.353a3.995,3.995,0,0,0,4.8-2.981c1.541-6.558,1.111-11.569-1.277-14.9a8.321,8.321,0,0,0-5.741-3.545,4,4,0,0,0-.754,7.965c.082.007-.051.18,0,.247.253.353.87,1.536.64,4.452l-5.969-1.388a4,4,0,0,0-1.813,7.792Z"/><path d="M86.638,140.217a4,4,0,0,0-2.645,5l.706,2.291a4,4,0,0,0,7.646-2.356l-.706-2.291A4,4,0,0,0,86.638,140.217Z"/><path d="M98.961,231.844v2.4a4,4,0,0,0,8,0v-2.4a4,4,0,0,0-8,0Z"/><path d="M183.809,115.51l1.287-1.367a4,4,0,1,0-5.825-5.484l-1.287,1.368a4,4,0,0,0,5.825,5.483Z"/><path d="M227.351,149.289a4,4,0,0,0,0,8h2.611a4,4,0,0,0,0-8Z"/><path d="M236.489,64.376a3.984,3.984,0,0,0,2.886-1.23l2.52-2.625a4,4,0,1,0-5.771-5.54l-2.52,2.625a4,4,0,0,0,2.885,6.77Z"/><path d="M285.248,80.277a4,4,0,0,0,4-4V74.594a4,4,0,0,0-8,0v1.683A4,4,0,0,0,285.248,80.277Z"/><path d="M211.243,112.93a3.9,3.9,0,0,0-3.659-6.892,11.2,11.2,0,0,0-6.278,9.988c0,6.959,5.725,9.754,8.752,10.26a4,4,0,1,0,1.387-7.878,2.392,2.392,0,0,1-2.139-2.382A3.359,3.359,0,0,1,211.243,112.93Z"/><circle cx="170.86" cy="152.417" r="4"/><circle cx="65.34" cy="148.906" r="4"/><circle cx="222.929" cy="173.174" r="4"/></svg>